<?xml version="1.0" standalone="no"?>
<!DOCTYPE svg PUBLIC "-//W3C//DTD SVG 20010904//EN"
 "http://www.w3.org/TR/2001/REC-SVG-20010904/DTD/svg10.dtd">
<svg version="1.0" xmlns="http://www.w3.org/2000/svg"
 width="250.000000pt" height="229.000000pt" viewBox="0 0 250.000000 229.000000"
 preserveAspectRatio="xMidYMid meet">

<g transform="translate(0.000000,229.000000) scale(0.100000,-0.100000)"
fill="#000000" stroke="none">
<path d="M0 1145 l0 -1145 1250 0 1250 0 0 1145 0 1145 -1250 0 -1250 0 0
-1145z m1492 534 c52 -13 127 -67 165 -117 65 -86 72 -133 75 -540 l3 -362
-162 0 -162 0 -3 323 c-3 302 -4 324 -24 362 -24 47 -89 85 -144 85 -59 0
-122 -38 -147 -90 -22 -43 -23 -52 -23 -361 l0 -317 -82 -7 c-46 -3 -119 -5
-163 -3 l-80 3 -3 513 -2 512 155 0 154 0 3 -97 3 -98 31 56 c75 131 231 184
406 138z"/>
</g>
</svg>
